<?xml version="1.0" encoding="UTF-8"?><svg id="Ebene_1" xmlns="http://www.w3.org/2000/svg" viewBox="0 0 96.378 25.512"><defs><style>.cls-1{fill:#fff;stroke-width:0px;}</style></defs><path class="cls-1" d="M14.526,9.825v-2.568l4.221-.469v12.85c0,1.513.352,2.075,1.301,2.075.246,0,.563-.035.879-.07v3.412c-.457.176-1.161.281-2.075.281-1.02,0-1.829-.176-2.462-.563-.774-.528-1.266-1.231-1.442-2.146-1.231,1.864-3.271,2.779-6.085,2.779-2.497,0-4.608-.879-6.331-2.673-1.688-1.794-2.532-3.974-2.532-6.612s.844-4.819,2.532-6.577c1.723-1.794,3.834-2.673,6.331-2.673,2.849,0,4.995,1.266,5.663,2.955ZM13.26,19.99c1.055-1.02,1.583-2.321,1.583-3.869s-.528-2.849-1.583-3.869c-1.02-1.02-2.321-1.548-3.834-1.548s-2.743.528-3.763,1.548c-.985,1.02-1.477,2.321-1.477,3.869s.492,2.849,1.477,3.869c1.02,1.02,2.251,1.548,3.763,1.548s2.814-.528,3.834-1.548Z"/><path class="cls-1" d="M24.428,11.091h-2.216v-3.834h2.216V.469l4.221-.469v7.257h3.904v3.834h-3.904v7.914c0,1.934.668,2.638,2.216,2.638.528,0,1.02-.035,1.477-.141v3.763c-.598.141-1.337.211-2.181.211-3.834,0-5.733-2.005-5.733-6.014v-8.371Z"/><path class="cls-1" d="M34.433,16.121c0-2.814.879-5.065,2.603-6.788,1.759-1.724,3.974-2.568,6.683-2.568,2.568,0,4.678.844,6.296,2.568,1.653,1.723,2.462,3.834,2.462,6.366,0,.527-.035,1.02-.07,1.477h-13.788c.141,2.814,2.216,4.643,5.346,4.643,1.829,0,3.412-.668,4.783-2.04l2.532,2.462c-2.005,2.11-4.467,3.166-7.457,3.166-2.779,0-5.065-.844-6.788-2.497s-2.603-3.869-2.603-6.648v-.141ZM48.186,14.221c0-1.055-.457-1.97-1.337-2.708-.879-.774-1.899-1.161-3.13-1.161-1.301,0-2.462.387-3.412,1.126s-1.477,1.653-1.583,2.743h9.461Z"/><path class="cls-1" d="M69.132,9.825V.469l4.221-.469v19.638c0,1.513.352,2.075,1.301,2.075.246,0,.563-.035.879-.07v3.412c-.457.176-1.161.281-2.075.281-1.02,0-1.829-.176-2.462-.563-.774-.528-1.266-1.231-1.442-2.146-1.231,1.864-3.271,2.779-6.085,2.779-2.497,0-4.608-.879-6.331-2.673-1.688-1.794-2.532-3.974-2.532-6.612s.844-4.819,2.532-6.577c1.723-1.794,3.834-2.673,6.331-2.673,2.849,0,4.994,1.266,5.663,2.955ZM67.866,19.99c1.055-1.02,1.583-2.321,1.583-3.869s-.528-2.849-1.583-3.869c-1.02-1.02-2.321-1.548-3.834-1.548s-2.744.528-3.764,1.548c-.985,1.02-1.477,2.321-1.477,3.869s.492,2.849,1.477,3.869c1.02,1.02,2.251,1.548,3.764,1.548s2.814-.528,3.834-1.548Z"/><path class="cls-1" d="M77.033,16.121c0-2.638.95-4.889,2.814-6.683,1.864-1.794,4.15-2.708,6.859-2.708s4.994.914,6.858,2.708c1.864,1.794,2.814,4.045,2.814,6.683s-.95,4.889-2.814,6.683c-1.864,1.794-4.15,2.708-6.858,2.708s-4.995-.914-6.859-2.708c-1.864-1.794-2.814-4.045-2.814-6.683ZM90.61,20.095c1.055-1.09,1.583-2.392,1.583-3.974s-.528-2.884-1.583-3.939c-1.055-1.09-2.357-1.618-3.904-1.618-1.583,0-2.884.528-3.939,1.618-1.02,1.055-1.548,2.356-1.548,3.939s.528,2.884,1.548,3.974c1.055,1.055,2.357,1.583,3.939,1.583,1.548,0,2.849-.527,3.904-1.583Z"/></svg>